<?xml version="1.0" encoding="UTF-8"?>
<svg xmlns="http://www.w3.org/2000/svg" xmlns:xlink="http://www.w3.org/1999/xlink" width="607pt" height="70pt" viewBox="0 0 607 70" version="1.1">
<g id="surface1">
<path style=" stroke:none;fill-rule:nonzero;fill:rgb(0%,0%,0%);fill-opacity:1;" d="M 116.25 24.75 C 114.558594 29.050781 112.265625 34.835938 111.101562 37.75 L 109 43 L 111.300781 43 C 113.007812 43 113.921875 42.101562 114.851562 39.5 C 116.066406 36.097656 116.25 36 121.550781 36 C 126.851562 36 127.039062 36.097656 128.449219 39.5 C 129.484375 42 130.515625 43 132.050781 43 C 133.351562 43 134.003906 42.507812 133.699219 41.75 C 133.421875 41.058594 131.101562 35.25 128.5 28.75 C 124.460938 18.648438 123.484375 17 121.550781 17 C 119.691406 17 118.769531 18.351562 116.25 24.75 Z M 126 32.648438 C 126 32.839844 124 33 121.601562 33 L 117.199219 33 L 119.300781 27.398438 L 121.398438 21.800781 L 123.699219 27.050781 C 124.96875 29.949219 126 32.457031 126 32.648438 "/>
<path style=" stroke:none;fill-rule:nonzero;fill:rgb(0%,0%,0%);fill-opacity:1;" d="M 137 30 L 137 43 L 142 43 L 142 17 L 137 17 L 137 30 "/>
<path style=" stroke:none;fill-rule:nonzero;fill:rgb(0%,0%,0%);fill-opacity:1;" d="M 157 30 C 157 42.300781 157.105469 43 158.949219 43 C 160.726562 43 160.925781 42.148438 161.199219 33.449219 L 161.5 23.898438 L 165.5 31.699219 C 167.808594 36.199219 170.136719 39.5 171 39.5 C 171.824219 39.5 174.300781 36.148438 176.5 32.050781 L 180.5 24.601562 L 180.800781 33.800781 C 181.074219 42.199219 181.269531 43 183.050781 43 C 184.894531 43 185 42.300781 185 30 C 185 17.101562 184.984375 17 182.75 17 C 180.921875 17 179.652344 18.601562 176 25.5 C 171.554688 33.898438 170.460938 35.171875 169.8125 32.699219 C 169.640625 32.039062 167.707031 28.25 165.5 24.25 C 162.355469 18.550781 161.019531 17 159.25 17 C 157.035156 17 157 17.199219 157 30 "/>
<path style=" stroke:none;fill-rule:nonzero;fill:rgb(0%,0%,0%);fill-opacity:1;" d="M 196.398438 18.578125 C 192.28125 20.589844 190 24.800781 190 30.398438 C 190 39.601562 199.339844 45.398438 208.199219 41.695312 C 217.601562 37.769531 217.664062 22.28125 208.300781 18.382812 C 204.101562 16.632812 200.261719 16.695312 196.398438 18.578125 Z M 208.5 23.398438 C 214.015625 28.914062 210.199219 39 202.601562 39 C 200.699219 39 198.164062 38.160156 196.851562 37.101562 C 194.90625 35.527344 194.5 34.300781 194.5 30 C 194.5 25.699219 194.914062 24.464844 196.898438 22.851562 C 200.199219 20.171875 205.523438 20.425781 208.5 23.398438 "/>
<path style=" stroke:none;fill-rule:nonzero;fill:rgb(0%,0%,0%);fill-opacity:1;" d="M 225.398438 18.550781 C 221.421875 20.511719 219 24.800781 219 29.898438 C 219 37.699219 223.855469 43 231 43 C 234.800781 43 240.285156 40.300781 239.742188 38.699219 C 239.347656 37.539062 238.601562 37.535156 232.699219 38.691406 C 226.757812 39.855469 222.152344 34.300781 223.425781 27.5 C 224.453125 22 230.796875 19.242188 236 22.035156 C 237.300781 22.730469 238.121094 22.597656 238.949219 21.550781 C 239.871094 20.390625 239.5 19.789062 237.101562 18.546875 C 233.300781 16.582031 229.398438 16.585938 225.398438 18.550781 "/>
<path style=" stroke:none;fill-rule:nonzero;fill:rgb(0%,0%,0%);fill-opacity:1;" d="M 244 30.050781 C 244 43.050781 244.007812 43.097656 246.25 42.800781 C 248.265625 42.53125 248.5 41.898438 248.5 36.699219 C 248.5 29.046875 250.464844 29.101562 256.136719 36.898438 C 259.773438 41.898438 261 42.90625 263.5 42.949219 C 265.199219 42.976562 266.023438 42.667969 265.398438 42.234375 C 263.898438 41.191406 256 29.816406 256 28.699219 C 256 28.199219 258.046875 25.398438 260.601562 22.398438 C 265.113281 17.101562 265.152344 17 262.648438 17 C 260.703125 17 259.121094 18.300781 255.953125 22.5 C 251.046875 29 247.59375 30.007812 248.410156 24.699219 C 249.121094 20.101562 248.109375 17 245.898438 17 C 244.136719 17 244 17.949219 244 30.050781 "/>
<path style=" stroke:none;fill-rule:nonzero;fill:rgb(0%,0%,0%);fill-opacity:1;" d="M 278 30 L 278 43 L 283 43 L 283 17 L 278 17 L 278 30 "/>
<path style=" stroke:none;fill-rule:nonzero;fill:rgb(0%,0%,0%);fill-opacity:1;" d="M 289 30 C 289 42.300781 289.105469 43 290.949219 43 C 292.730469 43 292.925781 42.199219 293.199219 33.898438 L 293.5 24.800781 L 300.515625 33.898438 C 310.339844 46.644531 311 46.398438 311 30 C 311 17.699219 310.894531 17 309.050781 17 C 307.28125 17 307.070312 17.851562 306.800781 26.050781 L 306.5 35.101562 L 299.46875 26.101562 C 289.664062 13.550781 289 13.800781 289 30 "/>
<path style=" stroke:none;fill-rule:nonzero;fill:rgb(0%,0%,0%);fill-opacity:1;" d="M 315 19 C 315 20.648438 315.699219 21 319 21 L 323 21 L 323 32 C 323 42.300781 323.128906 43 325 43 C 326.871094 43 327 42.300781 327 32 L 327 21 L 331 21 C 334.300781 21 335 20.648438 335 19 C 335 17.140625 334.300781 17 325 17 C 315.699219 17 315 17.140625 315 19 "/>
<path style=" stroke:none;fill-rule:nonzero;fill:rgb(0%,0%,0%);fill-opacity:1;" d="M 339 30 L 339 43 L 347 43 C 354.300781 43 355 42.824219 355 41 C 355 39.253906 354.300781 39 349.5 39 L 344 39 L 344 35.5 C 344 32 344 32 348.5 32 C 352.300781 32 353 31.6875 353 30 C 353 28.3125 352.300781 28 348.5 28 C 344 28 344 28 344 24.5 L 344 21 L 349.5 21 C 354.300781 21 355 20.746094 355 19 C 355 17.175781 354.300781 17 347 17 L 339 17 L 339 30 "/>
<path style=" stroke:none;fill-rule:nonzero;fill:rgb(0%,0%,0%);fill-opacity:1;" d="M 360 29.949219 C 360 43.050781 360.007812 43.097656 362.25 42.800781 C 364.203125 42.539062 364.539062 41.800781 364.804688 37.199219 C 365.214844 30.105469 367.386719 30.199219 371.785156 37.5 C 374.378906 41.800781 375.644531 43 377.601562 43 C 380.382812 43 380.289062 42.699219 375.238281 35.5 L 372.5 31.601562 L 375.300781 28.839844 C 378.5 25.683594 378.730469 23.101562 376.09375 19.898438 C 374.519531 17.988281 373 17.53125 367.101562 17.199219 L 360 16.800781 Z M 371.398438 21.59375 C 372.3125 21.941406 373 23.398438 373 25 C 373 27.984375 371.5 29 367.101562 29 C 364.742188 29 364.425781 28.648438 364.601562 26.25 C 364.710938 24.75 364.839844 22.953125 364.882812 22.300781 C 364.976562 20.972656 368.699219 20.566406 371.398438 21.59375 "/>
<path style=" stroke:none;fill-rule:nonzero;fill:rgb(0%,0%,0%);fill-opacity:1;" d="M 381.75 21.25 C 382.703125 23.570312 385.105469 29.5 387.027344 34.300781 C 392.089844 46.921875 393.242188 46.601562 399.570312 30.800781 C 402.296875 24 404.65625 18.164062 404.851562 17.75 C 405.046875 17.332031 404.101562 17 402.699219 17 C 400.472656 17 399.859375 17.949219 397.050781 25.75 C 395.320312 30.550781 393.5625 35.042969 393.148438 35.699219 C 392.703125 36.410156 390.851562 32.851562 388.601562 26.949219 C 385.238281 18.148438 384.523438 17 382.398438 17 L 380 17 L 381.75 21.25 "/>
<path style=" stroke:none;fill-rule:nonzero;fill:rgb(0%,0%,0%);fill-opacity:1;" d="M 408 30.050781 C 408 43.050781 408.007812 43.097656 410.25 42.800781 C 412.4375 42.507812 412.507812 42.148438 412.800781 29.75 L 413.101562 17 L 408 17 L 408 30.050781 "/>
<path style=" stroke:none;fill-rule:nonzero;fill:rgb(0%,0%,0%);fill-opacity:1;" d="M 419 30 L 419 43 L 427 43 C 434.300781 43 435 42.824219 435 41 C 435 39.253906 434.300781 39 429.5 39 L 424 39 L 424 35.5 C 424 32 424 32 428.5 32 C 432.300781 32 433 31.6875 433 30 C 433 28.3125 432.300781 28 428.5 28 C 424 28 424 28 424 24.5 L 424 21 L 429.5 21 C 434.300781 21 435 20.746094 435 19 C 435 17.175781 434.300781 17 427 17 L 419 17 L 419 30 "/>
<path style=" stroke:none;fill-rule:nonzero;fill:rgb(0%,0%,0%);fill-opacity:1;" d="M 438.25 18.75 C 438.496094 19.714844 440.226562 25.550781 442.101562 31.75 C 445 41.351562 445.800781 43 447.550781 43 C 449.257812 43 450.082031 41.5 452.5 34 C 454.109375 29 455.667969 25 456 25 C 456.332031 25 457.890625 29 459.5 34 C 461.917969 41.5 462.742188 43 464.449219 43 C 466.199219 43 467 41.351562 469.898438 31.75 C 471.773438 25.550781 473.523438 19.667969 473.800781 18.648438 C 474.191406 17.203125 473.800781 16.875 472 17.148438 C 470.027344 17.449219 469.335938 18.75 467.148438 26.25 C 465.75 31.050781 464.285156 34.660156 463.898438 34.25 C 463.511719 33.835938 461.988281 29.800781 460.484375 25.199219 C 456.808594 13.96875 455.347656 14.101562 451.449219 26 C 449.8125 31 448.277344 35 448 35 C 447.722656 35 446.753906 32.199219 445.820312 28.699219 C 443.179688 18.800781 442.269531 17 439.898438 17 C 438.398438 17 437.929688 17.5 438.25 18.75 "/>
<path style=" stroke:none;fill-rule:nonzero;fill:rgb(0%,0%,0%);fill-opacity:1;" d="M 478 30 L 478 43 L 486 43 C 493.300781 43 494 42.824219 494 41 C 494 39.253906 493.300781 39 488.5 39 L 483 39 L 483 35.5 C 483 32 483 32 487.5 32 C 491.300781 32 492 31.6875 492 30 C 492 28.3125 491.300781 28 487.5 28 C 483 28 483 28 483 24.5 L 483 21 L 488.5 21 C 493.300781 21 494 20.746094 494 19 C 494 17.175781 493.300781 17 486 17 L 478 17 L 478 30 "/>
<path style=" stroke:none;fill-rule:nonzero;fill:rgb(0%,0%,0%);fill-opacity:1;" d="M 499 29.949219 C 499 43.050781 499.007812 43.097656 501.25 42.800781 C 503.195312 42.539062 503.539062 41.800781 503.796875 37.300781 C 504.210938 30.136719 506.4375 30.199219 510.808594 37.5 C 513.382812 41.800781 514.636719 43 516.550781 43 L 519 43 L 515.898438 38 C 514.164062 35.199219 512.449219 32.78125 512 32.5 C 511.558594 32.222656 512.5 30.699219 514.101562 29.101562 C 517.5 25.699219 517.773438 23.15625 515.09375 19.898438 C 513.519531 17.988281 512 17.53125 506.101562 17.199219 L 499 16.800781 Z M 510.398438 21.601562 C 511.3125 21.941406 512 23.398438 512 25 C 512 27.910156 510.5 29 506.5 29 C 504.796875 29 504.070312 28.300781 503.699219 26.300781 C 503.421875 24.800781 503.425781 23.023438 503.707031 22.300781 C 504.234375 20.949219 507.699219 20.585938 510.398438 21.601562 "/>
<path style=" stroke:none;fill-rule:nonzero;fill:rgb(0%,0%,0%);fill-opacity:1;" d="M 35.851562 27.851562 C 29.550781 34.148438 29 35.042969 29 38.949219 C 29 42.449219 29.601562 43.800781 32.398438 46.601562 C 35.292969 49.492188 36.5 50 40.5 50 C 45.140625 50 45.351562 49.851562 56.949219 38.5 C 66.75 28.910156 69.207031 27 71.75 27 C 73.648438 27 75.042969 27.640625 75.449219 28.699219 C 76.027344 30.210938 76.34375 30.148438 78.300781 28.148438 L 80.5 25.898438 L 77.699219 23.449219 C 75.71875 21.71875 73.699219 21 70.800781 21 C 66.914062 21 66.050781 21.636719 54.351562 33.101562 C 43.148438 44.074219 41.75 45.136719 39.300781 44.519531 C 33.203125 42.984375 33.398438 37.980469 39.800781 31.707031 C 43.398438 28.175781 45.375 27 47.699219 27 C 49.699219 27 51.03125 27.601562 51.449219 28.699219 C 52.027344 30.210938 52.34375 30.148438 54.300781 28.148438 L 56.5 25.898438 L 53.699219 23.449219 C 51.71875 21.71875 49.699219 21 46.800781 21 C 43.089844 21 42.050781 21.648438 35.851562 27.851562 "/>
<path style=" stroke:none;fill-rule:nonzero;fill:rgb(0%,0%,0%);fill-opacity:1;" d="M 78.5 33 C 71.800781 39.589844 65.464844 45 64.449219 45 C 63.417969 45 61.648438 44.117188 60.449219 43 C 58.351562 41.046875 58.261719 41.042969 56.589844 42.898438 C 53.351562 46.496094 57.601562 50 65.199219 50 C 68.960938 50 69.898438 49.3125 80.898438 38.519531 C 93.699219 25.960938 96.433594 24.621094 99.539062 29.398438 C 100.9375 31.550781 100.945312 32.101562 99.605469 34.699219 C 97.699219 38.398438 90.457031 45 88.300781 45 C 87.351562 45 85.648438 44.117188 84.449219 43 C 82.351562 41.046875 82.261719 41.042969 80.589844 42.898438 C 77.351562 46.496094 81.601562 50 89.199219 50 C 92.824219 50 93.800781 49.398438 99.601562 43.601562 C 105.601562 37.601562 106 36.90625 106 32.5 C 106 28.5 105.492188 27.292969 102.601562 24.398438 C 99.800781 21.601562 98.449219 21 94.949219 21 C 90.875 21 90.199219 21.492188 78.5 33 "/>
</g>
</svg>
